<svg xmlns="http://www.w3.org/2000/svg" viewBox="0 0 720 720" width="720" height="720" fill="#000000"><defs><g id="p"><path d="M12 22c-4.3 0-7.2-2.2-7.2-5.1 0-3 3.2-5.4 7.2-5.4s7.2 2.4 7.2 5.4C19.2 19.8 16.3 22 12 22Z"/><ellipse cx="4.3" cy="9.6" rx="2.5" ry="3.1" transform="rotate(-18 4.3 9.6)"/><ellipse cx="9.4" cy="5.2" rx="2.5" ry="3.3"/><ellipse cx="14.6" cy="5.2" rx="2.5" ry="3.3"/><ellipse cx="19.7" cy="9.6" rx="2.5" ry="3.1" transform="rotate(18 19.7 9.6)"/></g></defs><use href="#p" transform="translate(548.0 554.4) rotate(23 11.9 11.9) scale(0.99)"/><use href="#p" transform="translate(448.1 377.3) rotate(-2 13.7 13.7) scale(1.14)"/><use href="#p" transform="translate(278.8 486.9) rotate(-21 10.1 10.1) scale(0.84)"/><use href="#p" transform="translate(475.4 471.0) rotate(36 13.0 13.0) scale(1.08)"/><use href="#p" transform="translate(134.0 359.4) rotate(32 8.6 8.6) scale(0.72)"/><use href="#p" transform="translate(357.7 301.8) rotate(-15 11.2 11.2) scale(0.93)"/><use href="#p" transform="translate(500.0 625.6) rotate(36 13.7 13.7) scale(1.14)"/><use href="#p" transform="translate(85.2 50.9) rotate(24 12.0 12.0) scale(1.0)"/><use href="#p" transform="translate(75.6 99.5) rotate(-32 10.1 10.1) scale(0.84)"/><use href="#p" transform="translate(233.4 272.7) rotate(4 10.1 10.1) scale(0.84)"/><use href="#p" transform="translate(515.5 373.2) rotate(26 10.8 10.8) scale(0.9)"/><use href="#p" transform="translate(451.6 608.9) rotate(4 8.8 8.8) scale(0.73)"/><use href="#p" transform="translate(290.3 102.6) rotate(-22 11.0 11.0) scale(0.92)"/><use href="#p" transform="translate(588.9 267.0) rotate(32 8.6 8.6) scale(0.72)"/><use href="#p" transform="translate(308.4 178.4) rotate(-29 10.1 10.1) scale(0.84)"/><use href="#p" transform="translate(568.8 622.7) rotate(6 12.0 12.0) scale(1.0)"/><use href="#p" transform="translate(131.9 293.2) rotate(20 10.1 10.1) scale(0.84)"/><use href="#p" transform="translate(163.6 418.9) rotate(7 9.5 9.5) scale(0.79)"/><use href="#p" transform="translate(320.0 590.5) rotate(-40 12.7 12.7) scale(1.06)"/><use href="#p" transform="translate(147.9 226.5) rotate(8 9.0 9.0) scale(0.75)"/><use href="#p" transform="translate(138.2 647.6) rotate(37 9.7 9.7) scale(0.81)"/><use href="#p" transform="translate(231.2 670.8) rotate(-22 12.2 12.2) scale(1.02)"/><use href="#p" transform="translate(31.0 414.4) rotate(2 9.1 9.1) scale(0.76)"/><use href="#p" transform="translate(372.9 635.9) rotate(-4 12.1 12.1) scale(1.01)"/><use href="#p" transform="translate(393.9 666.2) rotate(28 9.8 9.8) scale(0.82)"/><use href="#p" transform="translate(368.4 416.5) rotate(35 11.2 11.2) scale(0.93)"/><use href="#p" transform="translate(668.2 672.5) rotate(-37 13.7 13.7) scale(1.14)"/><use href="#p" transform="translate(597.8 439.5) rotate(39 13.0 13.0) scale(1.08)"/><use href="#p" transform="translate(123.4 55.7) rotate(-10 11.2 11.2) scale(0.93)"/><use href="#p" transform="translate(244.9 354.3) rotate(30 10.7 10.7) scale(0.89)"/><use href="#p" transform="translate(503.3 333.8) rotate(26 11.3 11.3) scale(0.94)"/><use href="#p" transform="translate(441.0 508.5) rotate(-34 10.3 10.3) scale(0.86)"/><use href="#p" transform="translate(163.6 175.6) rotate(21 9.1 9.1) scale(0.76)"/><use href="#p" transform="translate(556.8 301.3) rotate(22 12.7 12.7) scale(1.06)"/><use href="#p" transform="translate(368.6 172.4) rotate(-36 9.8 9.8) scale(0.82)"/><use href="#p" transform="translate(6.2 235.4) rotate(-36 13.3 13.3) scale(1.11)"/><use href="#p" transform="translate(529.0 81.4) rotate(28 10.7 10.7) scale(0.89)"/><use href="#p" transform="translate(627.0 12.9) rotate(14 12.7 12.7) scale(1.06)"/><use href="#p" transform="translate(85.8 417.7) rotate(39 11.6 11.6) scale(0.97)"/><use href="#p" transform="translate(315.0 477.9) rotate(4 8.9 8.9) scale(0.74)"/><use href="#p" transform="translate(654.0 625.8) rotate(-29 9.4 9.4) scale(0.78)"/><use href="#p" transform="translate(591.3 516.2) rotate(28 13.3 13.3) scale(1.11)"/><use href="#p" transform="translate(167.7 684.2) rotate(-27 11.9 11.9) scale(0.99)"/><use href="#p" transform="translate(148.5 555.9) rotate(26 9.0 9.0) scale(0.75)"/><use href="#p" transform="translate(390.8 597.7) rotate(-40 9.7 9.7) scale(0.81)"/><use href="#p" transform="translate(261.1 312.6) rotate(-36 10.6 10.6) scale(0.88)"/><use href="#p" transform="translate(718.8 623.7) rotate(13 12.2 12.2) scale(1.02)"/><use href="#p" transform="translate(-1.2 623.7) rotate(13 12.2 12.2) scale(1.02)"/><use href="#p" transform="translate(197.7 491.9) rotate(-18 9.7 9.7) scale(0.81)"/><use href="#p" transform="translate(43.5 13.3) rotate(12 12.6 12.6) scale(1.05)"/><use href="#p" transform="translate(649.7 468.8) rotate(35 11.6 11.6) scale(0.97)"/><use href="#p" transform="translate(326.6 676.2) rotate(7 12.0 12.0) scale(1.0)"/><use href="#p" transform="translate(197.1 607.5) rotate(28 9.2 9.2) scale(0.77)"/><use href="#p" transform="translate(408.9 121.2) rotate(15 11.0 11.0) scale(0.92)"/><use href="#p" transform="translate(587.8 681.0) rotate(-12 11.9 11.9) scale(0.99)"/><use href="#p" transform="translate(334.4 19.6) rotate(-16 10.0 10.0) scale(0.83)"/><use href="#p" transform="translate(13.7 160.9) rotate(3 13.3 13.3) scale(1.11)"/><use href="#p" transform="translate(352.3 257.1) rotate(-32 8.8 8.8) scale(0.73)"/><use href="#p" transform="translate(45.8 476.2) rotate(30 12.4 12.4) scale(1.03)"/><use href="#p" transform="translate(602.3 149.6) rotate(-6 8.9 8.9) scale(0.74)"/><use href="#p" transform="translate(462.0 539.6) rotate(-16 9.6 9.6) scale(0.8)"/><use href="#p" transform="translate(73.7 376.4) rotate(-5 9.2 9.2) scale(0.77)"/><use href="#p" transform="translate(205.7 295.6) rotate(0 10.8 10.8) scale(0.9)"/><use href="#p" transform="translate(620.6 697.0) rotate(-37 11.2 11.2) scale(0.93)"/><use href="#p" transform="translate(457.0 417.7) rotate(36 10.6 10.6) scale(0.88)"/><use href="#p" transform="translate(213.7 553.6) rotate(7 11.9 11.9) scale(0.99)"/><use href="#p" transform="translate(719.1 304.4) rotate(34 12.0 12.0) scale(1.0)"/><use href="#p" transform="translate(-0.9 304.4) rotate(34 12.0 12.0) scale(1.0)"/><use href="#p" transform="translate(199.6 139.4) rotate(-36 11.0 11.0) scale(0.92)"/><use href="#p" transform="translate(544.7 250.1) rotate(8 10.3 10.3) scale(0.86)"/><use href="#p" transform="translate(676.6 188.8) rotate(35 13.0 13.0) scale(1.08)"/><use href="#p" transform="translate(399.8 183.6) rotate(19 11.5 11.5) scale(0.96)"/><use href="#p" transform="translate(17.7 56.7) rotate(11 10.1 10.1) scale(0.84)"/><use href="#p" transform="translate(547.3 119.2) rotate(34 13.3 13.3) scale(1.11)"/><use href="#p" transform="translate(418.2 29.3) rotate(-1 9.4 9.4) scale(0.78)"/><use href="#p" transform="translate(200.5 176.5) rotate(-23 12.0 12.0) scale(1.0)"/><use href="#p" transform="translate(99.4 617.9) rotate(18 8.9 8.9) scale(0.74)"/><use href="#p" transform="translate(56.1 294.0) rotate(27 11.8 11.8) scale(0.98)"/><use href="#p" transform="translate(231.6 382.8) rotate(-11 10.3 10.3) scale(0.86)"/><use href="#p" transform="translate(109.1 501.6) rotate(-10 13.3 13.3) scale(1.11)"/><use href="#p" transform="translate(461.3 112.6) rotate(30 11.5 11.5) scale(0.96)"/><use href="#p" transform="translate(242.6 476.8) rotate(12 8.8 8.8) scale(0.73)"/><use href="#p" transform="translate(64.0 565.7) rotate(6 9.2 9.2) scale(0.77)"/><use href="#p" transform="translate(625.0 600.9) rotate(33 8.9 8.9) scale(0.74)"/><use href="#p" transform="translate(715.1 582.9) rotate(0 12.1 12.1) scale(1.01)"/><use href="#p" transform="translate(-4.9 582.9) rotate(0 12.1 12.1) scale(1.01)"/><use href="#p" transform="translate(287.9 584.2) rotate(13 11.0 11.0) scale(0.92)"/><use href="#p" transform="translate(719.4 5.5) rotate(-15 10.7 10.7) scale(0.89)"/><use href="#p" transform="translate(-0.6 5.5) rotate(-15 10.7 10.7) scale(0.89)"/><use href="#p" transform="translate(295.3 283.2) rotate(-8 13.7 13.7) scale(1.14)"/><use href="#p" transform="translate(545.5 210.5) rotate(40 10.2 10.2) scale(0.85)"/><use href="#p" transform="translate(680.8 361.7) rotate(-33 10.7 10.7) scale(0.89)"/><use href="#p" transform="translate(399.1 260.9) rotate(15 11.4 11.4) scale(0.95)"/><use href="#p" transform="translate(127.1 435.1) rotate(-21 12.0 12.0) scale(1.0)"/></svg>
